<svg width="23" height="23" xmlns="http://www.w3.org/2000/svg">
  <g id="card" mask="url(#a)">
    <rect x="0" y="0" width="23" height="23" stroke="none" stroke-linejoin="round" fill="#bf101e" rx="3" ry="3"/>
     <g transform="translate(-10, 0)">
     <g id="layer1" transform="translate(-91,-76.881918)"> <path  id="path30-0-8-4" d="m 102.41344,96.744843 c -1.06463,-3.7069 -3.948145,-6.47787 -6.311364,-9.42505 -1.238486,-1.4897 -2.410846,-3.41854 -1.888292,-5.40914 0.6033,-2.09777 3.149081,-3.26892 5.223227,-2.57744 1.385429,0.42043 2.508029,1.51375 3.043159,2.82073 0.47765,-0.71902 0.85273,-1.52899 1.592,-2.03889 1.77627,-1.45814 4.76316,-1.23696 6.17035,0.61539 1.03656,1.30205 0.81477,3.1195 0.11864,4.52023 -1.15153,2.42467 -3.25301,4.21788 -4.84391,6.35023 -1.20388,1.53933 -2.28597,3.21464 -2.8461,5.08885 -0.0384,0.0894 -0.19074,0.15827 -0.25775,0.055 z" style="fill:#f3737d;fill-opacity:1;stroke:#000000;stroke-width:0.5;stroke-dasharray:none;stroke-opacity:1" /></g>
     </g>
     <g
     id="layer1"
     transform="translate(-99.03686,-16.89077)">
    <g
       aria-label="0"
       id="text25329"
       style="font-size:20.9172px;line-height:1.25;fill:#fffafa;stroke:#000000;stroke-width:0.5"
       transform="translate(13.592016,0.86757546)">
      <path
         d="m 93.240897,27.235276 q 0,-4.269233 1.532022,-5.974884 1.542235,-1.70565 4.687985,-1.70565 1.511596,0 2.481876,0.377898 0.97028,0.367685 1.58309,0.970281 0.61281,0.592381 0.96006,1.256257 0.35748,0.653663 0.57196,1.532022 0.41875,1.67501 0.41875,3.493009 0,4.075177 -1.37882,5.96467 -1.37882,1.889493 -4.749264,1.889493 -1.889493,0 -3.053829,-0.602595 -1.164337,-0.602595 -1.90992,-1.766931 -0.541315,-0.827292 -0.847719,-2.257179 -0.296191,-1.4401 -0.296191,-3.176391 z m 4.126245,0.01021 q 0,2.859773 0.50046,3.911761 0.510674,1.041775 1.470741,1.041775 0.633235,0 1.092837,-0.43918 0.46982,-0.449393 0.68431,-1.40946 0.22469,-0.960066 0.22469,-2.992548 0,-2.982335 -0.51067,-4.003683 -0.50046,-1.031561 -1.511594,-1.031561 -1.031561,0 -1.491168,1.051988 -0.459606,1.041775 -0.459606,3.870908 z"
         id="path25647" />
    </g>
  </g>

     <rect x="0" y="0" width="23" height="23" stroke-width="1.0" stroke="white" stroke-linejoin="round" fill="none" rx="3" ry="3"/>
  </g>
  <mask id="a">
    <rect x="0" y="0" width="23" height="23" stroke="#fff" stroke-linejoin="round" fill="#fff" rx="3" ry="3"/>
  </mask>
</svg>
