<svg width="23" height="23" xmlns="http://www.w3.org/2000/svg">
  <g id="card" mask="url(#a)" opacity="1.0">
    <rect x="0" y="0" width="23" height="23" stroke="none" stroke-linejoin="round" fill="#bf101e" rx="3" ry="3"/>
     <g transform="translate(-10, 0)">
     <g id="layer1" transform="translate(-91,-76.881918)"> <path  id="path30-0-8-4" d="m 102.41344,96.744843 c -1.06463,-3.7069 -3.948145,-6.47787 -6.311364,-9.42505 -1.238486,-1.4897 -2.410846,-3.41854 -1.888292,-5.40914 0.6033,-2.09777 3.149081,-3.26892 5.223227,-2.57744 1.385429,0.42043 2.508029,1.51375 3.043159,2.82073 0.47765,-0.71902 0.85273,-1.52899 1.592,-2.03889 1.77627,-1.45814 4.76316,-1.23696 6.17035,0.61539 1.03656,1.30205 0.81477,3.1195 0.11864,4.52023 -1.15153,2.42467 -3.25301,4.21788 -4.84391,6.35023 -1.20388,1.53933 -2.28597,3.21464 -2.8461,5.08885 -0.0384,0.0894 -0.19074,0.15827 -0.25775,0.055 z" style="fill:#f3737d;fill-opacity:1;stroke:#000000;stroke-width:0.5;stroke-dasharray:none;stroke-opacity:1" /></g>
     </g>
     <g
     id="layer1"
     transform="translate(-85.852907,-93)">
    <g
       aria-label="3"
       id="text25259"
       style="font-size:20.9172px;line-height:1.25;fill:#fffafa;stroke:#000000;stroke-width:0.5">
      <path
         d="m 97.331403,101.38344 -3.932188,-0.70473 q 0.490247,-1.879276 1.879279,-2.880196 1.399247,-1.000921 3.952616,-1.000921 2.93127,0 4.23859,1.092842 1.30733,1.092842 1.30733,2.747425 0,0.97028 -0.5311,1.75672 -0.5311,0.78644 -1.60352,1.37882 0.86815,0.21448 1.32775,0.50046 0.74559,0.4596 1.15413,1.2154 0.41875,0.74559 0.41875,1.78736 0,1.30732 -0.6843,2.51252 -0.68431,1.19497 -1.97121,1.84863 -1.28689,0.64345 -3.380656,0.64345 -2.042696,0 -3.227459,-0.48003 -1.17455,-0.48003 -1.94056,-1.39925 -0.755798,-0.92942 -1.164337,-2.32867 l 4.156885,-0.55153 q 0.245124,1.25626 0.755798,1.74651 0.520887,0.48003 1.317538,0.48003 0.837501,0 1.389031,-0.61281 0.56174,-0.61281 0.56174,-1.63415 0,-1.04178 -0.54131,-1.61373 -0.5311,-0.57196 -1.450315,-0.57196 -0.490247,0 -1.348179,0.24513 l 0.214483,-2.97213 q 0.347258,0.0511 0.541314,0.0511 0.817079,0 1.358397,-0.52089 0.55152,-0.52088 0.55152,-1.23583 0,-0.6843 -0.40854,-1.092838 -0.408535,-0.40854 -1.123478,-0.40854 -0.73537,0 -1.194977,0.449393 -0.459606,0.439175 -0.623022,1.552445 z"
         id="path26190" />
    </g>
  </g>
     <rect x="0" y="0" width="23" height="23" stroke-width="1.0" stroke="white" stroke-linejoin="round" fill="none" rx="3" ry="3"/>
  </g>
  <mask id="a">
    <rect x="0" y="0" width="23" height="23" stroke="#fff" stroke-linejoin="round" fill="#fff" rx="3" ry="3"/>
  </mask>
</svg>
