<svg width="23" height="23" xmlns="http://www.w3.org/2000/svg">
  <g id="card">
    <rect x="1" y="1" width="21" height="21" stroke="none" stroke-linejoin="round" fill="#82bb37" rx="2" ry="2"/>
     <g transform="translate(-10, 0)">
     <g id="layer1" transform="translate(-135.7787,-70.6255575)"> <path style="color:#000000;display:block;overflow:visible;visibility:visible;fill:#cce6a9;fill-opacity:1;fill-rule:nonzero;stroke:#000000;stroke-width:0.519377;stroke-linecap:butt;stroke-linejoin:miter;stroke-miterlimit:4;stroke-dasharray:none;stroke-dashoffset:0;stroke-opacity:1;marker:none" d="m 145.35598,80.807295 c -3.45726,-1.460726 -8.54281,0.281534 -7.33958,4.211928 1.17255,3.830115 6.23635,2.989564 7.98741,0.658054 -0.7305,4.420618 -2.01347,5.10884 -2.78243,6.06841 h 8.16406 c -0.82718,-1.02617 -2.32922,-1.647792 -3.21006,-6.128984 1.76446,2.327556 7.06887,3.134441 8.22449,-0.640296 1.13679,-3.713311 -3.98749,-5.827954 -7.39501,-4.14697 3.2675,-1.940656 4.44093,-8.31417 -1.74769,-8.31417 -6.2497,0 -5.20696,6.498063 -1.90119,8.292028 z" id="rect3667-8-12-1-6"/> </g>
     </g>
     <g
     id="layer1"
     transform="translate(-99.03686,-16.89077)">
    <g
       aria-label="0"
       id="text25329"
       style="font-size:20.9172px;line-height:1.25;fill:#fffafa;stroke:#000000;stroke-width:0.5"
       transform="translate(13.592016,0.86757546)">
      <path
         d="m 93.240897,27.235276 q 0,-4.269233 1.532022,-5.974884 1.542235,-1.70565 4.687985,-1.70565 1.511596,0 2.481876,0.377898 0.97028,0.367685 1.58309,0.970281 0.61281,0.592381 0.96006,1.256257 0.35748,0.653663 0.57196,1.532022 0.41875,1.67501 0.41875,3.493009 0,4.075177 -1.37882,5.96467 -1.37882,1.889493 -4.749264,1.889493 -1.889493,0 -3.053829,-0.602595 -1.164337,-0.602595 -1.90992,-1.766931 -0.541315,-0.827292 -0.847719,-2.257179 -0.296191,-1.4401 -0.296191,-3.176391 z m 4.126245,0.01021 q 0,2.859773 0.50046,3.911761 0.510674,1.041775 1.470741,1.041775 0.633235,0 1.092837,-0.43918 0.46982,-0.449393 0.68431,-1.40946 0.22469,-0.960066 0.22469,-2.992548 0,-2.982335 -0.51067,-4.003683 -0.50046,-1.031561 -1.511594,-1.031561 -1.031561,0 -1.491168,1.051988 -0.459606,1.041775 -0.459606,3.870908 z"
         id="path25647" />
    </g>
  </g>

     <rect x="0" y="0" width="22" height="22" stroke-width="1px" stroke="black" stroke-linejoin="round" fill="none" rx="2" ry="2"/>
     <rect x="1" y="1" width="21" height="21" stroke-width="1.0" stroke="white" stroke-linejoin="round" fill="none" rx="2" ry="2"/>
  </g>
</svg>
