<svg width="23" height="23" xmlns="http://www.w3.org/2000/svg">
  <g id="card" mask="url(#a)">
    <rect x="1" y="1" width="21" height="21" stroke="none" stroke-linejoin="round" fill="#82bb37" rx="2" ry="2"/>
     <g transform="translate(-10, 0)">
     <g id="layer1" transform="translate(-135.7787,-70.6255575)"> <path style="color:#000000;display:block;overflow:visible;visibility:visible;fill:#cce6a9;fill-opacity:1;fill-rule:nonzero;stroke:#000000;stroke-width:0.519377;stroke-linecap:butt;stroke-linejoin:miter;stroke-miterlimit:4;stroke-dasharray:none;stroke-dashoffset:0;stroke-opacity:1;marker:none" d="m 145.35598,80.807295 c -3.45726,-1.460726 -8.54281,0.281534 -7.33958,4.211928 1.17255,3.830115 6.23635,2.989564 7.98741,0.658054 -0.7305,4.420618 -2.01347,5.10884 -2.78243,6.06841 h 8.16406 c -0.82718,-1.02617 -2.32922,-1.647792 -3.21006,-6.128984 1.76446,2.327556 7.06887,3.134441 8.22449,-0.640296 1.13679,-3.713311 -3.98749,-5.827954 -7.39501,-4.14697 3.2675,-1.940656 4.44093,-8.31417 -1.74769,-8.31417 -6.2497,0 -5.20696,6.498063 -1.90119,8.292028 z" id="rect3667-8-12-1-6"/> </g>
     </g>
     <g
     id="layer1"
     transform="translate(-85.810305,-148.51919)">
    <g
       aria-label="5"
       id="text25267"
       style="font-size:20.9172px;line-height:1.25;fill:#fffafa;stroke:#000000;stroke-width:0.5">
      <path
         d="m 94.992512,152.46918 h 9.876428 v 3.31938 h -6.689824 l -0.357471,2.24697 q 0.694516,-0.32683 1.368606,-0.49025 0.684303,-0.16342 1.348179,-0.16342 2.24696,0 3.64621,1.3584 1.39925,1.35839 1.39925,3.42151 0,1.45031 -0.72516,2.78828 -0.71494,1.33797 -2.0427,2.0427 -1.31753,0.70473 -3.380656,0.70473 -1.480954,0 -2.543156,-0.27577 -1.051988,-0.28598 -1.797571,-0.8375 -0.735371,-0.56174 -1.194977,-1.26647 -0.459607,-0.70473 -0.766011,-1.75672 l 4.207952,-0.45961 q 0.153203,1.01114 0.714944,1.54224 0.561741,0.52088 1.337965,0.52088 0.86815,0 1.42989,-0.65366 0.57195,-0.66388 0.57195,-1.9712 0,-1.33797 -0.57195,-1.96099 -0.57196,-0.62302 -1.521811,-0.62302 -0.602595,0 -1.164336,0.29619 -0.418753,0.21448 -0.919213,0.77623 l -3.544077,-0.51068 z"
         id="path26568" />
    </g>
  </g>
     <rect x="1" y="1" width="21" height="21" stroke-width="1.0" stroke="white" stroke-linejoin="round" fill="none" rx="2" ry="2"/>
  </g>
  <mask id="a">
    <rect x="1" y="1" width="21" height="21" stroke="#fff" stroke-linejoin="round" fill="#fff" rx="2" ry="2"/>
  </mask>
</svg>
