<svg width="23" height="23" xmlns="http://www.w3.org/2000/svg">
  <g id="card">
    <rect x="1" y="1" width="21" height="21" stroke="none" stroke-linejoin="round" fill="#64378c" rx="2" ry="2"/>
     <g transform="translate(-5, 0)">
     <g id="layer1" transform="translate(-68.736459,-198.9)"> <path fill="#0000ff" d="m 79.914084,200.911 c -2.2041,2.87401 -3.83878,7.694 -2.02239,11.11614 1.81638,3.42215 6.72986,4.77953 10.34276,4.5597 -1.83454,2.39211 -4.75485,3.58209 -7.77903,3.16979 -3.02418,-0.4123 -5.7505,-2.37208 -7.26233,-5.2204 -1.51182,-2.84832 -1.60832,-6.20683 -0.25701,-8.94628 1.3513,-2.73947 3.97091,-4.49597 6.978,-4.67895" id="path21600-7" style="fill:#e4d8ef;fill-opacity:1;stroke:#000000;stroke-width:0.5;stroke-dasharray:none;stroke-opacity:1"/></g>
     </g>
     <g
     id="layer1"
     transform="translate(-99.03686,-16.89077)">
    <g
       aria-label="0"
       id="text25329"
       style="font-size:20.9172px;line-height:1.25;fill:#fffafa;stroke:#000000;stroke-width:0.5"
       transform="translate(13.592016,0.86757546)">
      <path
         d="m 93.240897,27.235276 q 0,-4.269233 1.532022,-5.974884 1.542235,-1.70565 4.687985,-1.70565 1.511596,0 2.481876,0.377898 0.97028,0.367685 1.58309,0.970281 0.61281,0.592381 0.96006,1.256257 0.35748,0.653663 0.57196,1.532022 0.41875,1.67501 0.41875,3.493009 0,4.075177 -1.37882,5.96467 -1.37882,1.889493 -4.749264,1.889493 -1.889493,0 -3.053829,-0.602595 -1.164337,-0.602595 -1.90992,-1.766931 -0.541315,-0.827292 -0.847719,-2.257179 -0.296191,-1.4401 -0.296191,-3.176391 z m 4.126245,0.01021 q 0,2.859773 0.50046,3.911761 0.510674,1.041775 1.470741,1.041775 0.633235,0 1.092837,-0.43918 0.46982,-0.449393 0.68431,-1.40946 0.22469,-0.960066 0.22469,-2.992548 0,-2.982335 -0.51067,-4.003683 -0.50046,-1.031561 -1.511594,-1.031561 -1.031561,0 -1.491168,1.051988 -0.459606,1.041775 -0.459606,3.870908 z"
         id="path25647" />
    </g>
  </g>

     <rect x="0" y="0" width="22" height="22" stroke-width="1px" stroke="black" stroke-linejoin="round" fill="none" rx="2" ry="2"/>
     <rect x="1" y="1" width="21" height="21" stroke-width="1.0" stroke="white" stroke-linejoin="round" fill="none" rx="2" ry="2"/>
  </g>
</svg>
