<svg width="23" height="23" xmlns="http://www.w3.org/2000/svg">
  <g id="card" mask="url(#a)">
    <rect x="1" y="1" width="21" height="21" stroke="none" stroke-linejoin="round" fill="#da602d" rx="2" ry="2"/>
     <g transform="translate(-10, 0)">
     <g id="layer1" transform="translate(-40.538304,-210.40214)"> <path id="path41583-2" style="fill:#f3d1c1;stroke:#000000;stroke-width:0.5;stroke-dasharray:none"   d="m 61.023168,229.47548 c -0.234521,0.37583 -8.837408,0.23682 -9.280403,0.23493 -0.427144,-0.002 -8.744961,0.0642 -8.945729,-0.31282 -0.208217,-0.39102 4.213614,-7.77183 4.43675,-8.15453 0.215151,-0.36901 4.316881,-7.60546 4.743777,-7.59082 0.442739,0.0152 4.623795,7.53501 4.843655,7.9196 0.211992,0.37083 4.428079,7.54126 4.20195,7.90364"/></g>
     </g>
     <g
     id="layer1"
     transform="translate(-85.837656,-65.2)">
    <g
       aria-label="2"
       id="text25255"
       style="font-size:20.9172px;line-height:1.25;fill:#fffafa;stroke:#000000;stroke-width:0.5">
      <path
         d="M 105.59921,84.381599 H 93.118338 q 0.214483,-1.848639 1.297112,-3.472582 1.092842,-1.634156 4.085391,-3.85048 1.828209,-1.358393 2.338889,-2.063123 0.51067,-0.704729 0.51067,-1.337965 0,-0.684303 -0.51067,-1.164336 -0.50046,-0.490247 -1.266474,-0.490247 -0.796652,0 -1.307325,0.50046 -0.500461,0.50046 -0.67409,1.766932 l -4.167098,-0.337045 q 0.245123,-1.756718 0.898786,-2.737212 0.653662,-0.990707 1.838425,-1.511594 1.194977,-0.531101 3.298953,-0.531101 2.195893,0 3.411303,0.50046 1.22562,0.500461 1.92013,1.542235 0.70473,1.031561 0.70473,2.318459 0,1.368606 -0.80686,2.61465 -0.79665,1.246044 -2.91084,2.737212 -1.25626,0.868146 -1.68523,1.215404 -0.41875,0.347258 -0.990704,0.908999 h 6.495774 z"
         id="path26001" />
    </g>
  </g>
     <rect x="1" y="1" width="21" height="21" stroke-width="1.0" stroke="white" stroke-linejoin="round" fill="none" rx="2" ry="2"/>
  </g>
  <mask id="a">
    <rect x="1" y="1" width="21" height="21" stroke="#fff" stroke-linejoin="round" fill="#fff" rx="2" ry="2"/>
  </mask>
</svg>
