<svg width="23" height="23" xmlns="http://www.w3.org/2000/svg">
  <g id="card" mask="url(#a)" opacity="1.0">
    <rect x="0" y="0" width="23" height="23" stroke="none" stroke-linejoin="round" fill="#fdb612" rx="3" ry="3"/>
     <g transform="translate(-10,0)">
     <g id="layer1" transform="translate(-68.75,-239.31908)"> <g id="path40437-9-1-7"   transform="matrix(0.51826821,-0.01361055,0.01361055,0.51826821,83.677183,233.16154)" style="stroke-width:0.964419;stroke-dasharray:none"> <path style="color:#000000;fill:#feeabb;stroke-width:0.964419;stroke-dasharray:none" d="m 1.9174013,39.54639 1.1407855,12.647293 -11.1844112,-6.013682 -11.6757686,4.993181 2.263178,-12.495338 -8.356807,-9.561338 12.583132,-1.708861 6.5109778,-10.902412 5.5136253,11.439203 12.3808129,2.823277 z" id="path583-3" /> <path style="color:#000000;fill:#000000;stroke-width:0.964419;stroke-dasharray:none" d="m -6.7597656,15.5625 -6.8261724,11.431641 -13.193359,1.791015 8.761719,10.025391 -2.373047,13.101562 L -8.1484375,46.675781 3.578125,52.980469 2.3828125,39.720703 12.001953,30.515625 -0.97851563,27.556641 Z m -0.083984,1.884766 5.2460938,10.884765 11.7812498,2.685547 -8.7304686,8.353516 0.019531,0.214843 1.0664063,11.820313 -10.6425781,-5.722656 -11.1093756,4.75 2.152344,-11.888672 -7.951172,-9.095703 11.972656,-1.626953 z" id="path585-7" /> </g></g>
     </g>
     <g
     id="layer1"
     transform="translate(-85.852907,-93)">
    <g
       aria-label="3"
       id="text25259"
       style="font-size:20.9172px;line-height:1.25;fill:#fffafa;stroke:#000000;stroke-width:0.5">
      <path
         d="m 97.331403,101.38344 -3.932188,-0.70473 q 0.490247,-1.879276 1.879279,-2.880196 1.399247,-1.000921 3.952616,-1.000921 2.93127,0 4.23859,1.092842 1.30733,1.092842 1.30733,2.747425 0,0.97028 -0.5311,1.75672 -0.5311,0.78644 -1.60352,1.37882 0.86815,0.21448 1.32775,0.50046 0.74559,0.4596 1.15413,1.2154 0.41875,0.74559 0.41875,1.78736 0,1.30732 -0.6843,2.51252 -0.68431,1.19497 -1.97121,1.84863 -1.28689,0.64345 -3.380656,0.64345 -2.042696,0 -3.227459,-0.48003 -1.17455,-0.48003 -1.94056,-1.39925 -0.755798,-0.92942 -1.164337,-2.32867 l 4.156885,-0.55153 q 0.245124,1.25626 0.755798,1.74651 0.520887,0.48003 1.317538,0.48003 0.837501,0 1.389031,-0.61281 0.56174,-0.61281 0.56174,-1.63415 0,-1.04178 -0.54131,-1.61373 -0.5311,-0.57196 -1.450315,-0.57196 -0.490247,0 -1.348179,0.24513 l 0.214483,-2.97213 q 0.347258,0.0511 0.541314,0.0511 0.817079,0 1.358397,-0.52089 0.55152,-0.52088 0.55152,-1.23583 0,-0.6843 -0.40854,-1.092838 -0.408535,-0.40854 -1.123478,-0.40854 -0.73537,0 -1.194977,0.449393 -0.459606,0.439175 -0.623022,1.552445 z"
         id="path26190" />
    </g>
  </g>
     <rect x="0" y="0" width="23" height="23" stroke-width="1.0" stroke="white" stroke-linejoin="round" fill="none" rx="3" ry="3"/>
  </g>
  <mask id="a">
    <rect x="0" y="0" width="23" height="23" stroke="#fff" stroke-linejoin="round" fill="#fff" rx="3" ry="3"/>
  </mask>
</svg>
