<svg width="23" height="23" xmlns="http://www.w3.org/2000/svg">
  <g id="card" mask="url(#a)" opacity="1.0">
    <rect x="0" y="0" width="23" height="23" stroke="none" stroke-linejoin="round" fill="#82bb37" rx="3" ry="3"/>
     <g transform="translate(-10, 0)">
     <g id="layer1" transform="translate(-135.7787,-70.6255575)"> <path style="color:#000000;display:block;overflow:visible;visibility:visible;fill:#cce6a9;fill-opacity:1;fill-rule:nonzero;stroke:#000000;stroke-width:0.519377;stroke-linecap:butt;stroke-linejoin:miter;stroke-miterlimit:4;stroke-dasharray:none;stroke-dashoffset:0;stroke-opacity:1;marker:none" d="m 145.35598,80.807295 c -3.45726,-1.460726 -8.54281,0.281534 -7.33958,4.211928 1.17255,3.830115 6.23635,2.989564 7.98741,0.658054 -0.7305,4.420618 -2.01347,5.10884 -2.78243,6.06841 h 8.16406 c -0.82718,-1.02617 -2.32922,-1.647792 -3.21006,-6.128984 1.76446,2.327556 7.06887,3.134441 8.22449,-0.640296 1.13679,-3.713311 -3.98749,-5.827954 -7.39501,-4.14697 3.2675,-1.940656 4.44093,-8.31417 -1.74769,-8.31417 -6.2497,0 -5.20696,6.498063 -1.90119,8.292028 z" id="rect3667-8-12-1-6"/> </g>
     </g>
     <g
     id="layer1"
     transform="translate(-85.852907,-93)">
    <g
       aria-label="3"
       id="text25259"
       style="font-size:20.9172px;line-height:1.25;fill:#fffafa;stroke:#000000;stroke-width:0.5">
      <path
         d="m 97.331403,101.38344 -3.932188,-0.70473 q 0.490247,-1.879276 1.879279,-2.880196 1.399247,-1.000921 3.952616,-1.000921 2.93127,0 4.23859,1.092842 1.30733,1.092842 1.30733,2.747425 0,0.97028 -0.5311,1.75672 -0.5311,0.78644 -1.60352,1.37882 0.86815,0.21448 1.32775,0.50046 0.74559,0.4596 1.15413,1.2154 0.41875,0.74559 0.41875,1.78736 0,1.30732 -0.6843,2.51252 -0.68431,1.19497 -1.97121,1.84863 -1.28689,0.64345 -3.380656,0.64345 -2.042696,0 -3.227459,-0.48003 -1.17455,-0.48003 -1.94056,-1.39925 -0.755798,-0.92942 -1.164337,-2.32867 l 4.156885,-0.55153 q 0.245124,1.25626 0.755798,1.74651 0.520887,0.48003 1.317538,0.48003 0.837501,0 1.389031,-0.61281 0.56174,-0.61281 0.56174,-1.63415 0,-1.04178 -0.54131,-1.61373 -0.5311,-0.57196 -1.450315,-0.57196 -0.490247,0 -1.348179,0.24513 l 0.214483,-2.97213 q 0.347258,0.0511 0.541314,0.0511 0.817079,0 1.358397,-0.52089 0.55152,-0.52088 0.55152,-1.23583 0,-0.6843 -0.40854,-1.092838 -0.408535,-0.40854 -1.123478,-0.40854 -0.73537,0 -1.194977,0.449393 -0.459606,0.439175 -0.623022,1.552445 z"
         id="path26190" />
    </g>
  </g>
     <rect x="0" y="0" width="23" height="23" stroke-width="1.0" stroke="white" stroke-linejoin="round" fill="none" rx="3" ry="3"/>
  </g>
  <mask id="a">
    <rect x="0" y="0" width="23" height="23" stroke="#fff" stroke-linejoin="round" fill="#fff" rx="3" ry="3"/>
  </mask>
</svg>
