<svg width="23" height="23" xmlns="http://www.w3.org/2000/svg">
  <g id="card" mask="url(#a)">
    <rect x="1" y="1" width="21" height="21" stroke="none" stroke-linejoin="round" fill="#fdb612" rx="2" ry="2"/>
     <g transform="translate(-10,0)">
     <g id="layer1" transform="translate(-68.75,-239.31908)"> <g id="path40437-9-1-7"   transform="matrix(0.51826821,-0.01361055,0.01361055,0.51826821,83.677183,233.16154)" style="stroke-width:0.964419;stroke-dasharray:none"> <path style="color:#000000;fill:#feeabb;stroke-width:0.964419;stroke-dasharray:none" d="m 1.9174013,39.54639 1.1407855,12.647293 -11.1844112,-6.013682 -11.6757686,4.993181 2.263178,-12.495338 -8.356807,-9.561338 12.583132,-1.708861 6.5109778,-10.902412 5.5136253,11.439203 12.3808129,2.823277 z" id="path583-3" /> <path style="color:#000000;fill:#000000;stroke-width:0.964419;stroke-dasharray:none" d="m -6.7597656,15.5625 -6.8261724,11.431641 -13.193359,1.791015 8.761719,10.025391 -2.373047,13.101562 L -8.1484375,46.675781 3.578125,52.980469 2.3828125,39.720703 12.001953,30.515625 -0.97851563,27.556641 Z m -0.083984,1.884766 5.2460938,10.884765 11.7812498,2.685547 -8.7304686,8.353516 0.019531,0.214843 1.0664063,11.820313 -10.6425781,-5.722656 -11.1093756,4.75 2.152344,-11.888672 -7.951172,-9.095703 11.972656,-1.626953 z" id="path585-7" /> </g></g>
     </g>
     <g
     id="layer1"
     transform="translate(-99.03686,-16.89077)">
    <g
       aria-label="0"
       id="text25329"
       style="font-size:20.9172px;line-height:1.25;fill:#fffafa;stroke:#000000;stroke-width:0.5"
       transform="translate(13.592016,0.86757546)">
      <path
         d="m 93.240897,27.235276 q 0,-4.269233 1.532022,-5.974884 1.542235,-1.70565 4.687985,-1.70565 1.511596,0 2.481876,0.377898 0.97028,0.367685 1.58309,0.970281 0.61281,0.592381 0.96006,1.256257 0.35748,0.653663 0.57196,1.532022 0.41875,1.67501 0.41875,3.493009 0,4.075177 -1.37882,5.96467 -1.37882,1.889493 -4.749264,1.889493 -1.889493,0 -3.053829,-0.602595 -1.164337,-0.602595 -1.90992,-1.766931 -0.541315,-0.827292 -0.847719,-2.257179 -0.296191,-1.4401 -0.296191,-3.176391 z m 4.126245,0.01021 q 0,2.859773 0.50046,3.911761 0.510674,1.041775 1.470741,1.041775 0.633235,0 1.092837,-0.43918 0.46982,-0.449393 0.68431,-1.40946 0.22469,-0.960066 0.22469,-2.992548 0,-2.982335 -0.51067,-4.003683 -0.50046,-1.031561 -1.511594,-1.031561 -1.031561,0 -1.491168,1.051988 -0.459606,1.041775 -0.459606,3.870908 z"
         id="path25647" />
    </g>
  </g>

     <rect x="1" y="1" width="21" height="21" stroke-width="1.0" stroke="white" stroke-linejoin="round" fill="none" rx="2" ry="2"/>
  </g>
  <mask id="a">
    <rect x="1" y="1" width="21" height="21" stroke="#fff" stroke-linejoin="round" fill="#fff" rx="2" ry="2"/>
  </mask>
</svg>
