<svg width="23" height="23" xmlns="http://www.w3.org/2000/svg">
  <g id="card" mask="url(#a)">
    <rect x="1" y="1" width="21" height="21" stroke="none" stroke-linejoin="round" fill="#64378c" rx="2" ry="2"/>
     <g transform="translate(-5, 0)">
     <g id="layer1" transform="translate(-68.736459,-198.9)"> <path fill="#0000ff" d="m 79.914084,200.911 c -2.2041,2.87401 -3.83878,7.694 -2.02239,11.11614 1.81638,3.42215 6.72986,4.77953 10.34276,4.5597 -1.83454,2.39211 -4.75485,3.58209 -7.77903,3.16979 -3.02418,-0.4123 -5.7505,-2.37208 -7.26233,-5.2204 -1.51182,-2.84832 -1.60832,-6.20683 -0.25701,-8.94628 1.3513,-2.73947 3.97091,-4.49597 6.978,-4.67895" id="path21600-7" style="fill:#e4d8ef;fill-opacity:1;stroke:#000000;stroke-width:0.5;stroke-dasharray:none;stroke-opacity:1"/></g>
     </g>
     <g
     id="layer1"
     transform="translate(-85.810305,-148.51919)">
    <g
       aria-label="5"
       id="text25267"
       style="font-size:20.9172px;line-height:1.25;fill:#fffafa;stroke:#000000;stroke-width:0.5">
      <path
         d="m 94.992512,152.46918 h 9.876428 v 3.31938 h -6.689824 l -0.357471,2.24697 q 0.694516,-0.32683 1.368606,-0.49025 0.684303,-0.16342 1.348179,-0.16342 2.24696,0 3.64621,1.3584 1.39925,1.35839 1.39925,3.42151 0,1.45031 -0.72516,2.78828 -0.71494,1.33797 -2.0427,2.0427 -1.31753,0.70473 -3.380656,0.70473 -1.480954,0 -2.543156,-0.27577 -1.051988,-0.28598 -1.797571,-0.8375 -0.735371,-0.56174 -1.194977,-1.26647 -0.459607,-0.70473 -0.766011,-1.75672 l 4.207952,-0.45961 q 0.153203,1.01114 0.714944,1.54224 0.561741,0.52088 1.337965,0.52088 0.86815,0 1.42989,-0.65366 0.57195,-0.66388 0.57195,-1.9712 0,-1.33797 -0.57195,-1.96099 -0.57196,-0.62302 -1.521811,-0.62302 -0.602595,0 -1.164336,0.29619 -0.418753,0.21448 -0.919213,0.77623 l -3.544077,-0.51068 z"
         id="path26568" />
    </g>
  </g>
     <rect x="1" y="1" width="21" height="21" stroke-width="1.0" stroke="white" stroke-linejoin="round" fill="none" rx="2" ry="2"/>
  </g>
  <mask id="a">
    <rect x="1" y="1" width="21" height="21" stroke="#fff" stroke-linejoin="round" fill="#fff" rx="2" ry="2"/>
  </mask>
</svg>
