<svg width="23" height="23" xmlns="http://www.w3.org/2000/svg">
  <g id="card" mask="url(#a)" opacity="1.0">
    <rect x="0" y="0" width="23" height="23" stroke="none" stroke-linejoin="round" fill="#da602d" rx="3" ry="3"/>
     <g transform="translate(-10, 0)">
     <g id="layer1" transform="translate(-40.538304,-210.40214)"> <path id="path41583-2" style="fill:#f3d1c1;stroke:#000000;stroke-width:0.5;stroke-dasharray:none"   d="m 61.023168,229.47548 c -0.234521,0.37583 -8.837408,0.23682 -9.280403,0.23493 -0.427144,-0.002 -8.744961,0.0642 -8.945729,-0.31282 -0.208217,-0.39102 4.213614,-7.77183 4.43675,-8.15453 0.215151,-0.36901 4.316881,-7.60546 4.743777,-7.59082 0.442739,0.0152 4.623795,7.53501 4.843655,7.9196 0.211992,0.37083 4.428079,7.54126 4.20195,7.90364"/></g>
     </g>
     <g
     id="layer1"
     transform="translate(-85.810305,-148.51919)">
    <g
       aria-label="5"
       id="text25267"
       style="font-size:20.9172px;line-height:1.25;fill:#fffafa;stroke:#000000;stroke-width:0.5">
      <path
         d="m 94.992512,152.46918 h 9.876428 v 3.31938 h -6.689824 l -0.357471,2.24697 q 0.694516,-0.32683 1.368606,-0.49025 0.684303,-0.16342 1.348179,-0.16342 2.24696,0 3.64621,1.3584 1.39925,1.35839 1.39925,3.42151 0,1.45031 -0.72516,2.78828 -0.71494,1.33797 -2.0427,2.0427 -1.31753,0.70473 -3.380656,0.70473 -1.480954,0 -2.543156,-0.27577 -1.051988,-0.28598 -1.797571,-0.8375 -0.735371,-0.56174 -1.194977,-1.26647 -0.459607,-0.70473 -0.766011,-1.75672 l 4.207952,-0.45961 q 0.153203,1.01114 0.714944,1.54224 0.561741,0.52088 1.337965,0.52088 0.86815,0 1.42989,-0.65366 0.57195,-0.66388 0.57195,-1.9712 0,-1.33797 -0.57195,-1.96099 -0.57196,-0.62302 -1.521811,-0.62302 -0.602595,0 -1.164336,0.29619 -0.418753,0.21448 -0.919213,0.77623 l -3.544077,-0.51068 z"
         id="path26568" />
    </g>
  </g>
     <rect x="0" y="0" width="23" height="23" stroke-width="1.0" stroke="white" stroke-linejoin="round" fill="none" rx="3" ry="3"/>
  </g>
  <mask id="a">
    <rect x="0" y="0" width="23" height="23" stroke="#fff" stroke-linejoin="round" fill="#fff" rx="3" ry="3"/>
  </mask>
</svg>
