<svg width="23" height="23" xmlns="http://www.w3.org/2000/svg">
  <g id="card" mask="url(#a)">
    <rect x="1" y="1" width="21" height="21" stroke="none" stroke-linejoin="round" fill="#1eaec4" rx="2" ry="2"/>
     <g transform="translate(-10, 0)">
     <g id="layer1" transform="translate(-113.2,-97.9)"> <path style="fill:#bcecf3;fill-opacity:1;fill-rule:evenodd;stroke:#000000;stroke-width:0.5;stroke-dasharray:none;stroke-opacity:1" d="m 124.78009,99.605963 c -2.83483,3.392067 -6.02613,6.655057 -9.26834,9.788947 3.39499,3.1339 6.63721,6.39688 9.26834,9.78895 2.73297,-3.4566 5.72057,-6.75186 9.26834,-9.78895 -3.44592,-3.13389 -6.5863,-6.46142 -9.26834,-9.788947 z" id="path2139-9-7"/> </g>
     </g>
     <g
     id="layer1"
     transform="translate(-85.53686,-176.3)">
    <g
       aria-label="6"
       id="text25271"
       style="font-size:20.9172px;line-height:1.25;fill:#fffafa;stroke:#000000;stroke-width:0.5">
      <path
         d="m 105.2111,183.73926 -4.13646,0.51067 q -0.16342,-0.86814 -0.55153,-1.22562 -0.3779,-0.35747 -0.939637,-0.35747 -1.011134,0 -1.572875,1.02135 -0.408539,0.73537 -0.602596,3.14575 0.745584,-0.7558 1.532022,-1.11327 0.786438,-0.36768 1.817996,-0.36768 2.00184,0 3.38066,1.42988 1.38904,1.42989 1.38904,3.62579 0,1.48095 -0.70473,2.70657 -0.69452,1.22562 -1.94056,1.85885 -1.23583,0.62302 -3.104901,0.62302 -2.246965,0 -3.605357,-0.76601 -1.358393,-0.76601 -2.175471,-2.44102 -0.806864,-1.68522 -0.806864,-4.45307 0,-4.05475 1.70565,-5.93403 1.705651,-1.8895 4.72884,-1.8895 1.787363,0 2.818923,0.41876 1.04177,0.40853 1.72607,1.20519 0.68431,0.79665 1.04178,2.00184 z m -7.660109,6.6694 q 0,1.2154 0.612809,1.90992 0.612808,0.6843 1.501381,0.6843 0.817079,0 1.368609,-0.62302 0.55152,-0.62302 0.55152,-1.85885 0,-1.26648 -0.57195,-1.93035 -0.57195,-0.66388 -1.419674,-0.66388 -0.868145,0 -1.460527,0.64345 -0.582168,0.64345 -0.582168,1.83843 z"
         id="path26757" />
    </g>
  </g>
     <rect x="1" y="1" width="21" height="21" stroke-width="1.0" stroke="white" stroke-linejoin="round" fill="none" rx="2" ry="2"/>
  </g>
  <mask id="a">
    <rect x="1" y="1" width="21" height="21" stroke="#fff" stroke-linejoin="round" fill="#fff" rx="2" ry="2"/>
  </mask>
</svg>
