<svg width="23" height="23" xmlns="http://www.w3.org/2000/svg">
  <g id="card" mask="url(#a)">
    <rect x="0" y="0" width="23" height="23" stroke="none" stroke-linejoin="round" fill="#415152" rx="3" ry="3"/>
     <g transform="translate(-10, 0)">
     <g id="layer1" transform="translate(-75.2,-137)"> <path  id="path2076-5-3-7" d="m 80.570829,145.34561 c -7.181522,6.67739 -0.141595,11.52086 5.536369,8.33299 -1.072113,3.47825 -1.66169,3.7519 -2.312582,4.66792 h 6.130548 c -0.786947,-0.92501 -1.613381,-1.18967 -2.450684,-4.64814 5.797122,3.03077 11.907009,-2.25463 5.474376,-8.35277 -4.206928,-3.34895 -5.840212,-6.4065 -6.189009,-6.84061 -0.334674,0.36173 -2.306464,3.55375 -6.189018,6.84061 z" style="fill:#99acaf;fill-opacity:1;fill-rule:evenodd;stroke:#000000;stroke-width:0.530851;stroke-linecap:butt;stroke-linejoin:miter;stroke-dasharray:none;stroke-opacity:1"/></g>
     </g>
     <g
     id="layer1"
     transform="translate(-85.837656,-65.2)">
    <g
       aria-label="2"
       id="text25255"
       style="font-size:20.9172px;line-height:1.25;fill:#fffafa;stroke:#000000;stroke-width:0.5">
      <path
         d="M 105.59921,84.381599 H 93.118338 q 0.214483,-1.848639 1.297112,-3.472582 1.092842,-1.634156 4.085391,-3.85048 1.828209,-1.358393 2.338889,-2.063123 0.51067,-0.704729 0.51067,-1.337965 0,-0.684303 -0.51067,-1.164336 -0.50046,-0.490247 -1.266474,-0.490247 -0.796652,0 -1.307325,0.50046 -0.500461,0.50046 -0.67409,1.766932 l -4.167098,-0.337045 q 0.245123,-1.756718 0.898786,-2.737212 0.653662,-0.990707 1.838425,-1.511594 1.194977,-0.531101 3.298953,-0.531101 2.195893,0 3.411303,0.50046 1.22562,0.500461 1.92013,1.542235 0.70473,1.031561 0.70473,2.318459 0,1.368606 -0.80686,2.61465 -0.79665,1.246044 -2.91084,2.737212 -1.25626,0.868146 -1.68523,1.215404 -0.41875,0.347258 -0.990704,0.908999 h 6.495774 z"
         id="path26001" />
    </g>
  </g>
     <rect x="0" y="0" width="23" height="23" stroke-width="1.0" stroke="white" stroke-linejoin="round" fill="none" rx="3" ry="3"/>
  </g>
  <mask id="a">
    <rect x="0" y="0" width="23" height="23" stroke="#fff" stroke-linejoin="round" fill="#fff" rx="3" ry="3"/>
  </mask>
</svg>
