<svg width="23" height="23" xmlns="http://www.w3.org/2000/svg">
  <g id="card">
    <rect x="1" y="1" width="21" height="21" stroke="none" stroke-linejoin="round" fill="#da602d" rx="2" ry="2"/>
     <g transform="translate(-10, 0)">
     <g id="layer1" transform="translate(-40.538304,-210.40214)"> <path id="path41583-2" style="fill:#f3d1c1;stroke:#000000;stroke-width:0.5;stroke-dasharray:none"   d="m 61.023168,229.47548 c -0.234521,0.37583 -8.837408,0.23682 -9.280403,0.23493 -0.427144,-0.002 -8.744961,0.0642 -8.945729,-0.31282 -0.208217,-0.39102 4.213614,-7.77183 4.43675,-8.15453 0.215151,-0.36901 4.316881,-7.60546 4.743777,-7.59082 0.442739,0.0152 4.623795,7.53501 4.843655,7.9196 0.211992,0.37083 4.428079,7.54126 4.20195,7.90364"/></g>
     </g>
     <g
     id="layer1"
     transform="translate(-103.45981,-41.312457)">
    <g
       aria-label="1"
       id="text25251"
       style="font-size:20.9172px;line-height:1.25;fill:#fffafa;stroke:#000000;stroke-width:0.5"
       transform="translate(17.640701,3.18111)">
      <path
         d="m 103.64843,41.381345 v 15.228293 h -4.207955 v -9.978566 q -1.021347,0.776224 -1.981414,1.256257 -0.949853,0.480034 -2.389954,0.919213 v -3.411301 q 2.124403,-0.684303 3.298953,-1.64437 1.17455,-0.960067 1.83843,-2.369526 z"
         id="path25812" />
    </g>
  </g>
     <rect x="0" y="0" width="22" height="22" stroke-width="1px" stroke="black" stroke-linejoin="round" fill="none" rx="2" ry="2"/>
     <rect x="1" y="1" width="21" height="21" stroke-width="1.0" stroke="white" stroke-linejoin="round" fill="none" rx="2" ry="2"/>
  </g>
</svg>
