<svg width="23" height="23" xmlns="http://www.w3.org/2000/svg">
  <g id="card" mask="url(#a)">
    <rect x="1" y="1" width="21" height="21" stroke="none" stroke-linejoin="round" fill="#fdb612" rx="2" ry="2"/>
     <g transform="translate(-10,0)">
     <g id="layer1" transform="translate(-68.75,-239.31908)"> <g id="path40437-9-1-7"   transform="matrix(0.51826821,-0.01361055,0.01361055,0.51826821,83.677183,233.16154)" style="stroke-width:0.964419;stroke-dasharray:none"> <path style="color:#000000;fill:#feeabb;stroke-width:0.964419;stroke-dasharray:none" d="m 1.9174013,39.54639 1.1407855,12.647293 -11.1844112,-6.013682 -11.6757686,4.993181 2.263178,-12.495338 -8.356807,-9.561338 12.583132,-1.708861 6.5109778,-10.902412 5.5136253,11.439203 12.3808129,2.823277 z" id="path583-3" /> <path style="color:#000000;fill:#000000;stroke-width:0.964419;stroke-dasharray:none" d="m -6.7597656,15.5625 -6.8261724,11.431641 -13.193359,1.791015 8.761719,10.025391 -2.373047,13.101562 L -8.1484375,46.675781 3.578125,52.980469 2.3828125,39.720703 12.001953,30.515625 -0.97851563,27.556641 Z m -0.083984,1.884766 5.2460938,10.884765 11.7812498,2.685547 -8.7304686,8.353516 0.019531,0.214843 1.0664063,11.820313 -10.6425781,-5.722656 -11.1093756,4.75 2.152344,-11.888672 -7.951172,-9.095703 11.972656,-1.626953 z" id="path585-7" /> </g></g>
     </g>
     <g
     id="layer1"
     transform="translate(-85.810305,-148.51919)">
    <g
       aria-label="5"
       id="text25267"
       style="font-size:20.9172px;line-height:1.25;fill:#fffafa;stroke:#000000;stroke-width:0.5">
      <path
         d="m 94.992512,152.46918 h 9.876428 v 3.31938 h -6.689824 l -0.357471,2.24697 q 0.694516,-0.32683 1.368606,-0.49025 0.684303,-0.16342 1.348179,-0.16342 2.24696,0 3.64621,1.3584 1.39925,1.35839 1.39925,3.42151 0,1.45031 -0.72516,2.78828 -0.71494,1.33797 -2.0427,2.0427 -1.31753,0.70473 -3.380656,0.70473 -1.480954,0 -2.543156,-0.27577 -1.051988,-0.28598 -1.797571,-0.8375 -0.735371,-0.56174 -1.194977,-1.26647 -0.459607,-0.70473 -0.766011,-1.75672 l 4.207952,-0.45961 q 0.153203,1.01114 0.714944,1.54224 0.561741,0.52088 1.337965,0.52088 0.86815,0 1.42989,-0.65366 0.57195,-0.66388 0.57195,-1.9712 0,-1.33797 -0.57195,-1.96099 -0.57196,-0.62302 -1.521811,-0.62302 -0.602595,0 -1.164336,0.29619 -0.418753,0.21448 -0.919213,0.77623 l -3.544077,-0.51068 z"
         id="path26568" />
    </g>
  </g>
     <rect x="1" y="1" width="21" height="21" stroke-width="1.0" stroke="white" stroke-linejoin="round" fill="none" rx="2" ry="2"/>
  </g>
  <mask id="a">
    <rect x="1" y="1" width="21" height="21" stroke="#fff" stroke-linejoin="round" fill="#fff" rx="2" ry="2"/>
  </mask>
</svg>
