<svg width="23" height="23" xmlns="http://www.w3.org/2000/svg">
  <g id="card" mask="url(#a)">
    <rect x="0" y="0" width="23" height="23" stroke="none" stroke-linejoin="round" fill="#64378c" rx="3" ry="3"/>
     <g transform="translate(-5, 0)">
     <g id="layer1" transform="translate(-68.736459,-198.9)"> <path fill="#0000ff" d="m 79.914084,200.911 c -2.2041,2.87401 -3.83878,7.694 -2.02239,11.11614 1.81638,3.42215 6.72986,4.77953 10.34276,4.5597 -1.83454,2.39211 -4.75485,3.58209 -7.77903,3.16979 -3.02418,-0.4123 -5.7505,-2.37208 -7.26233,-5.2204 -1.51182,-2.84832 -1.60832,-6.20683 -0.25701,-8.94628 1.3513,-2.73947 3.97091,-4.49597 6.978,-4.67895" id="path21600-7" style="fill:#e4d8ef;fill-opacity:1;stroke:#000000;stroke-width:0.5;stroke-dasharray:none;stroke-opacity:1"/></g>
     </g>
     <g
     id="layer1"
     transform="translate(-85.837656,-65.2)">
    <g
       aria-label="2"
       id="text25255"
       style="font-size:20.9172px;line-height:1.25;fill:#fffafa;stroke:#000000;stroke-width:0.5">
      <path
         d="M 105.59921,84.381599 H 93.118338 q 0.214483,-1.848639 1.297112,-3.472582 1.092842,-1.634156 4.085391,-3.85048 1.828209,-1.358393 2.338889,-2.063123 0.51067,-0.704729 0.51067,-1.337965 0,-0.684303 -0.51067,-1.164336 -0.50046,-0.490247 -1.266474,-0.490247 -0.796652,0 -1.307325,0.50046 -0.500461,0.50046 -0.67409,1.766932 l -4.167098,-0.337045 q 0.245123,-1.756718 0.898786,-2.737212 0.653662,-0.990707 1.838425,-1.511594 1.194977,-0.531101 3.298953,-0.531101 2.195893,0 3.411303,0.50046 1.22562,0.500461 1.92013,1.542235 0.70473,1.031561 0.70473,2.318459 0,1.368606 -0.80686,2.61465 -0.79665,1.246044 -2.91084,2.737212 -1.25626,0.868146 -1.68523,1.215404 -0.41875,0.347258 -0.990704,0.908999 h 6.495774 z"
         id="path26001" />
    </g>
  </g>
     <rect x="0" y="0" width="23" height="23" stroke-width="1.0" stroke="white" stroke-linejoin="round" fill="none" rx="3" ry="3"/>
  </g>
  <mask id="a">
    <rect x="0" y="0" width="23" height="23" stroke="#fff" stroke-linejoin="round" fill="#fff" rx="3" ry="3"/>
  </mask>
</svg>
