<svg width="23" height="23" xmlns="http://www.w3.org/2000/svg">
  <g id="card">
    <rect x="1" y="1" width="21" height="21" stroke="none" stroke-linejoin="round" fill="#82bb37" rx="2" ry="2"/>
     <g transform="translate(-10, 0)">
     <g id="layer1" transform="translate(-135.7787,-70.6255575)"> <path style="color:#000000;display:block;overflow:visible;visibility:visible;fill:#cce6a9;fill-opacity:1;fill-rule:nonzero;stroke:#000000;stroke-width:0.519377;stroke-linecap:butt;stroke-linejoin:miter;stroke-miterlimit:4;stroke-dasharray:none;stroke-dashoffset:0;stroke-opacity:1;marker:none" d="m 145.35598,80.807295 c -3.45726,-1.460726 -8.54281,0.281534 -7.33958,4.211928 1.17255,3.830115 6.23635,2.989564 7.98741,0.658054 -0.7305,4.420618 -2.01347,5.10884 -2.78243,6.06841 h 8.16406 c -0.82718,-1.02617 -2.32922,-1.647792 -3.21006,-6.128984 1.76446,2.327556 7.06887,3.134441 8.22449,-0.640296 1.13679,-3.713311 -3.98749,-5.827954 -7.39501,-4.14697 3.2675,-1.940656 4.44093,-8.31417 -1.74769,-8.31417 -6.2497,0 -5.20696,6.498063 -1.90119,8.292028 z" id="rect3667-8-12-1-6"/> </g>
     </g>
     <g
     id="layer1"
     transform="translate(-85.53686,-176.3)">
    <g
       aria-label="6"
       id="text25271"
       style="font-size:20.9172px;line-height:1.25;fill:#fffafa;stroke:#000000;stroke-width:0.5">
      <path
         d="m 105.2111,183.73926 -4.13646,0.51067 q -0.16342,-0.86814 -0.55153,-1.22562 -0.3779,-0.35747 -0.939637,-0.35747 -1.011134,0 -1.572875,1.02135 -0.408539,0.73537 -0.602596,3.14575 0.745584,-0.7558 1.532022,-1.11327 0.786438,-0.36768 1.817996,-0.36768 2.00184,0 3.38066,1.42988 1.38904,1.42989 1.38904,3.62579 0,1.48095 -0.70473,2.70657 -0.69452,1.22562 -1.94056,1.85885 -1.23583,0.62302 -3.104901,0.62302 -2.246965,0 -3.605357,-0.76601 -1.358393,-0.76601 -2.175471,-2.44102 -0.806864,-1.68522 -0.806864,-4.45307 0,-4.05475 1.70565,-5.93403 1.705651,-1.8895 4.72884,-1.8895 1.787363,0 2.818923,0.41876 1.04177,0.40853 1.72607,1.20519 0.68431,0.79665 1.04178,2.00184 z m -7.660109,6.6694 q 0,1.2154 0.612809,1.90992 0.612808,0.6843 1.501381,0.6843 0.817079,0 1.368609,-0.62302 0.55152,-0.62302 0.55152,-1.85885 0,-1.26648 -0.57195,-1.93035 -0.57195,-0.66388 -1.419674,-0.66388 -0.868145,0 -1.460527,0.64345 -0.582168,0.64345 -0.582168,1.83843 z"
         id="path26757" />
    </g>
  </g>
     <rect x="0" y="0" width="22" height="22" stroke-width="1px" stroke="black" stroke-linejoin="round" fill="none" rx="2" ry="2"/>
     <rect x="1" y="1" width="21" height="21" stroke-width="1.0" stroke="white" stroke-linejoin="round" fill="none" rx="2" ry="2"/>
  </g>
</svg>
