<svg width="23" height="23" xmlns="http://www.w3.org/2000/svg">
  <g id="card">
    <rect x="1" y="1" width="21" height="21" stroke="none" stroke-linejoin="round" fill="#da602d" rx="2" ry="2"/>
     <g transform="translate(-10, 0)">
     <g id="layer1" transform="translate(-40.538304,-210.40214)"> <path id="path41583-2" style="fill:#f3d1c1;stroke:#000000;stroke-width:0.5;stroke-dasharray:none"   d="m 61.023168,229.47548 c -0.234521,0.37583 -8.837408,0.23682 -9.280403,0.23493 -0.427144,-0.002 -8.744961,0.0642 -8.945729,-0.31282 -0.208217,-0.39102 4.213614,-7.77183 4.43675,-8.15453 0.215151,-0.36901 4.316881,-7.60546 4.743777,-7.59082 0.442739,0.0152 4.623795,7.53501 4.843655,7.9196 0.211992,0.37083 4.428079,7.54126 4.20195,7.90364"/></g>
     </g>
     <g
     id="layer1"
     transform="translate(-85.567042,-121.0)">
    <g
       aria-label="4"
       id="text25263"
       style="font-size:20.9172px;line-height:1.25;fill:#fffafa;stroke:#000000;stroke-width:0.5">
      <path
         d="m 100.39544,137.12703 h -7.578397 v -3.42152 l 7.578397,-9.00828 h 3.62579 v 9.20234 h 1.87928 v 3.22746 h -1.87928 v 2.79849 h -3.62579 z m 0,-3.22746 v -4.70841 l -4.00368,4.70841 z"
         id="path26379" />
    </g>
  </g>
     <rect x="0" y="0" width="22" height="22" stroke-width="1px" stroke="black" stroke-linejoin="round" fill="none" rx="2" ry="2"/>
     <rect x="1" y="1" width="21" height="21" stroke-width="1.0" stroke="white" stroke-linejoin="round" fill="none" rx="2" ry="2"/>
  </g>
</svg>
