<svg width="23" height="23" xmlns="http://www.w3.org/2000/svg">
  <g id="card" mask="url(#a)">
    <rect x="1" y="1" width="21" height="21" stroke="none" stroke-linejoin="round" fill="#415152" rx="2" ry="2"/>
     <g transform="translate(-10, 0)">
     <g id="layer1" transform="translate(-75.2,-137)"> <path  id="path2076-5-3-7" d="m 80.570829,145.34561 c -7.181522,6.67739 -0.141595,11.52086 5.536369,8.33299 -1.072113,3.47825 -1.66169,3.7519 -2.312582,4.66792 h 6.130548 c -0.786947,-0.92501 -1.613381,-1.18967 -2.450684,-4.64814 5.797122,3.03077 11.907009,-2.25463 5.474376,-8.35277 -4.206928,-3.34895 -5.840212,-6.4065 -6.189009,-6.84061 -0.334674,0.36173 -2.306464,3.55375 -6.189018,6.84061 z" style="fill:#99acaf;fill-opacity:1;fill-rule:evenodd;stroke:#000000;stroke-width:0.530851;stroke-linecap:butt;stroke-linejoin:miter;stroke-dasharray:none;stroke-opacity:1"/></g>
     </g>
     <g
     id="layer1"
     transform="translate(-85.567042,-121.0)">
    <g
       aria-label="4"
       id="text25263"
       style="font-size:20.9172px;line-height:1.25;fill:#fffafa;stroke:#000000;stroke-width:0.5">
      <path
         d="m 100.39544,137.12703 h -7.578397 v -3.42152 l 7.578397,-9.00828 h 3.62579 v 9.20234 h 1.87928 v 3.22746 h -1.87928 v 2.79849 h -3.62579 z m 0,-3.22746 v -4.70841 l -4.00368,4.70841 z"
         id="path26379" />
    </g>
  </g>
     <rect x="1" y="1" width="21" height="21" stroke-width="1.0" stroke="white" stroke-linejoin="round" fill="none" rx="2" ry="2"/>
  </g>
  <mask id="a">
    <rect x="1" y="1" width="21" height="21" stroke="#fff" stroke-linejoin="round" fill="#fff" rx="2" ry="2"/>
  </mask>
</svg>
