<svg width="23" height="23" xmlns="http://www.w3.org/2000/svg">
  <g id="card" mask="url(#a)">
    <rect x="1" y="1" width="21" height="21" stroke="none" stroke-linejoin="round" fill="#64378c" rx="2" ry="2"/>
     <g transform="translate(-5, 0)">
     <g id="layer1" transform="translate(-68.736459,-198.9)"> <path fill="#0000ff" d="m 79.914084,200.911 c -2.2041,2.87401 -3.83878,7.694 -2.02239,11.11614 1.81638,3.42215 6.72986,4.77953 10.34276,4.5597 -1.83454,2.39211 -4.75485,3.58209 -7.77903,3.16979 -3.02418,-0.4123 -5.7505,-2.37208 -7.26233,-5.2204 -1.51182,-2.84832 -1.60832,-6.20683 -0.25701,-8.94628 1.3513,-2.73947 3.97091,-4.49597 6.978,-4.67895" id="path21600-7" style="fill:#e4d8ef;fill-opacity:1;stroke:#000000;stroke-width:0.5;stroke-dasharray:none;stroke-opacity:1"/></g>
     </g>
     <g
     id="layer1"
     transform="translate(-85.852907,-93)">
    <g
       aria-label="3"
       id="text25259"
       style="font-size:20.9172px;line-height:1.25;fill:#fffafa;stroke:#000000;stroke-width:0.5">
      <path
         d="m 97.331403,101.38344 -3.932188,-0.70473 q 0.490247,-1.879276 1.879279,-2.880196 1.399247,-1.000921 3.952616,-1.000921 2.93127,0 4.23859,1.092842 1.30733,1.092842 1.30733,2.747425 0,0.97028 -0.5311,1.75672 -0.5311,0.78644 -1.60352,1.37882 0.86815,0.21448 1.32775,0.50046 0.74559,0.4596 1.15413,1.2154 0.41875,0.74559 0.41875,1.78736 0,1.30732 -0.6843,2.51252 -0.68431,1.19497 -1.97121,1.84863 -1.28689,0.64345 -3.380656,0.64345 -2.042696,0 -3.227459,-0.48003 -1.17455,-0.48003 -1.94056,-1.39925 -0.755798,-0.92942 -1.164337,-2.32867 l 4.156885,-0.55153 q 0.245124,1.25626 0.755798,1.74651 0.520887,0.48003 1.317538,0.48003 0.837501,0 1.389031,-0.61281 0.56174,-0.61281 0.56174,-1.63415 0,-1.04178 -0.54131,-1.61373 -0.5311,-0.57196 -1.450315,-0.57196 -0.490247,0 -1.348179,0.24513 l 0.214483,-2.97213 q 0.347258,0.0511 0.541314,0.0511 0.817079,0 1.358397,-0.52089 0.55152,-0.52088 0.55152,-1.23583 0,-0.6843 -0.40854,-1.092838 -0.408535,-0.40854 -1.123478,-0.40854 -0.73537,0 -1.194977,0.449393 -0.459606,0.439175 -0.623022,1.552445 z"
         id="path26190" />
    </g>
  </g>
     <rect x="1" y="1" width="21" height="21" stroke-width="1.0" stroke="white" stroke-linejoin="round" fill="none" rx="2" ry="2"/>
  </g>
  <mask id="a">
    <rect x="1" y="1" width="21" height="21" stroke="#fff" stroke-linejoin="round" fill="#fff" rx="2" ry="2"/>
  </mask>
</svg>
