<svg width="23" height="23" xmlns="http://www.w3.org/2000/svg">
  <g id="card">
    <rect x="1" y="1" width="21" height="21" stroke="none" stroke-linejoin="round" fill="#da602d" rx="2" ry="2"/>
     <g transform="translate(-10, 0)">
     <g id="layer1" transform="translate(-40.538304,-210.40214)"> <path id="path41583-2" style="fill:#f3d1c1;stroke:#000000;stroke-width:0.5;stroke-dasharray:none"   d="m 61.023168,229.47548 c -0.234521,0.37583 -8.837408,0.23682 -9.280403,0.23493 -0.427144,-0.002 -8.744961,0.0642 -8.945729,-0.31282 -0.208217,-0.39102 4.213614,-7.77183 4.43675,-8.15453 0.215151,-0.36901 4.316881,-7.60546 4.743777,-7.59082 0.442739,0.0152 4.623795,7.53501 4.843655,7.9196 0.211992,0.37083 4.428079,7.54126 4.20195,7.90364"/></g>
     </g>
     <g
     id="layer1"
     transform="translate(-85.852907,-93)">
    <g
       aria-label="3"
       id="text25259"
       style="font-size:20.9172px;line-height:1.25;fill:#fffafa;stroke:#000000;stroke-width:0.5">
      <path
         d="m 97.331403,101.38344 -3.932188,-0.70473 q 0.490247,-1.879276 1.879279,-2.880196 1.399247,-1.000921 3.952616,-1.000921 2.93127,0 4.23859,1.092842 1.30733,1.092842 1.30733,2.747425 0,0.97028 -0.5311,1.75672 -0.5311,0.78644 -1.60352,1.37882 0.86815,0.21448 1.32775,0.50046 0.74559,0.4596 1.15413,1.2154 0.41875,0.74559 0.41875,1.78736 0,1.30732 -0.6843,2.51252 -0.68431,1.19497 -1.97121,1.84863 -1.28689,0.64345 -3.380656,0.64345 -2.042696,0 -3.227459,-0.48003 -1.17455,-0.48003 -1.94056,-1.39925 -0.755798,-0.92942 -1.164337,-2.32867 l 4.156885,-0.55153 q 0.245124,1.25626 0.755798,1.74651 0.520887,0.48003 1.317538,0.48003 0.837501,0 1.389031,-0.61281 0.56174,-0.61281 0.56174,-1.63415 0,-1.04178 -0.54131,-1.61373 -0.5311,-0.57196 -1.450315,-0.57196 -0.490247,0 -1.348179,0.24513 l 0.214483,-2.97213 q 0.347258,0.0511 0.541314,0.0511 0.817079,0 1.358397,-0.52089 0.55152,-0.52088 0.55152,-1.23583 0,-0.6843 -0.40854,-1.092838 -0.408535,-0.40854 -1.123478,-0.40854 -0.73537,0 -1.194977,0.449393 -0.459606,0.439175 -0.623022,1.552445 z"
         id="path26190" />
    </g>
  </g>
     <rect x="0" y="0" width="22" height="22" stroke-width="1px" stroke="black" stroke-linejoin="round" fill="none" rx="2" ry="2"/>
     <rect x="1" y="1" width="21" height="21" stroke-width="1.0" stroke="white" stroke-linejoin="round" fill="none" rx="2" ry="2"/>
  </g>
</svg>
