<svg width="23" height="23" xmlns="http://www.w3.org/2000/svg">
  <g id="card" mask="url(#a)">
    <rect x="0" y="0" width="23" height="23" stroke="none" stroke-linejoin="round" fill="#fdb612" rx="3" ry="3"/>
     <g transform="translate(-10,0)">
     <g id="layer1" transform="translate(-68.75,-239.31908)"> <g id="path40437-9-1-7"   transform="matrix(0.51826821,-0.01361055,0.01361055,0.51826821,83.677183,233.16154)" style="stroke-width:0.964419;stroke-dasharray:none"> <path style="color:#000000;fill:#feeabb;stroke-width:0.964419;stroke-dasharray:none" d="m 1.9174013,39.54639 1.1407855,12.647293 -11.1844112,-6.013682 -11.6757686,4.993181 2.263178,-12.495338 -8.356807,-9.561338 12.583132,-1.708861 6.5109778,-10.902412 5.5136253,11.439203 12.3808129,2.823277 z" id="path583-3" /> <path style="color:#000000;fill:#000000;stroke-width:0.964419;stroke-dasharray:none" d="m -6.7597656,15.5625 -6.8261724,11.431641 -13.193359,1.791015 8.761719,10.025391 -2.373047,13.101562 L -8.1484375,46.675781 3.578125,52.980469 2.3828125,39.720703 12.001953,30.515625 -0.97851563,27.556641 Z m -0.083984,1.884766 5.2460938,10.884765 11.7812498,2.685547 -8.7304686,8.353516 0.019531,0.214843 1.0664063,11.820313 -10.6425781,-5.722656 -11.1093756,4.75 2.152344,-11.888672 -7.951172,-9.095703 11.972656,-1.626953 z" id="path585-7" /> </g></g>
     </g>
     <g
     id="layer1"
     transform="translate(-85.53686,-176.3)">
    <g
       aria-label="6"
       id="text25271"
       style="font-size:20.9172px;line-height:1.25;fill:#fffafa;stroke:#000000;stroke-width:0.5">
      <path
         d="m 105.2111,183.73926 -4.13646,0.51067 q -0.16342,-0.86814 -0.55153,-1.22562 -0.3779,-0.35747 -0.939637,-0.35747 -1.011134,0 -1.572875,1.02135 -0.408539,0.73537 -0.602596,3.14575 0.745584,-0.7558 1.532022,-1.11327 0.786438,-0.36768 1.817996,-0.36768 2.00184,0 3.38066,1.42988 1.38904,1.42989 1.38904,3.62579 0,1.48095 -0.70473,2.70657 -0.69452,1.22562 -1.94056,1.85885 -1.23583,0.62302 -3.104901,0.62302 -2.246965,0 -3.605357,-0.76601 -1.358393,-0.76601 -2.175471,-2.44102 -0.806864,-1.68522 -0.806864,-4.45307 0,-4.05475 1.70565,-5.93403 1.705651,-1.8895 4.72884,-1.8895 1.787363,0 2.818923,0.41876 1.04177,0.40853 1.72607,1.20519 0.68431,0.79665 1.04178,2.00184 z m -7.660109,6.6694 q 0,1.2154 0.612809,1.90992 0.612808,0.6843 1.501381,0.6843 0.817079,0 1.368609,-0.62302 0.55152,-0.62302 0.55152,-1.85885 0,-1.26648 -0.57195,-1.93035 -0.57195,-0.66388 -1.419674,-0.66388 -0.868145,0 -1.460527,0.64345 -0.582168,0.64345 -0.582168,1.83843 z"
         id="path26757" />
    </g>
  </g>
     <rect x="0" y="0" width="23" height="23" stroke-width="1.0" stroke="white" stroke-linejoin="round" fill="none" rx="3" ry="3"/>
  </g>
  <mask id="a">
    <rect x="0" y="0" width="23" height="23" stroke="#fff" stroke-linejoin="round" fill="#fff" rx="3" ry="3"/>
  </mask>
</svg>
