<svg width="23" height="23" xmlns="http://www.w3.org/2000/svg">
  <g id="card" mask="url(#a)">
    <rect x="0" y="0" width="23" height="23" stroke="none" stroke-linejoin="round" fill="#1eaec4" rx="3" ry="3"/>
     <g transform="translate(-10, 0)">
     <g id="layer1" transform="translate(-113.2,-97.9)"> <path style="fill:#bcecf3;fill-opacity:1;fill-rule:evenodd;stroke:#000000;stroke-width:0.5;stroke-dasharray:none;stroke-opacity:1" d="m 124.78009,99.605963 c -2.83483,3.392067 -6.02613,6.655057 -9.26834,9.788947 3.39499,3.1339 6.63721,6.39688 9.26834,9.78895 2.73297,-3.4566 5.72057,-6.75186 9.26834,-9.78895 -3.44592,-3.13389 -6.5863,-6.46142 -9.26834,-9.788947 z" id="path2139-9-7"/> </g>
     </g>
     <g
     id="layer1"
     transform="translate(-85.567042,-121.0)">
    <g
       aria-label="4"
       id="text25263"
       style="font-size:20.9172px;line-height:1.25;fill:#fffafa;stroke:#000000;stroke-width:0.5">
      <path
         d="m 100.39544,137.12703 h -7.578397 v -3.42152 l 7.578397,-9.00828 h 3.62579 v 9.20234 h 1.87928 v 3.22746 h -1.87928 v 2.79849 h -3.62579 z m 0,-3.22746 v -4.70841 l -4.00368,4.70841 z"
         id="path26379" />
    </g>
  </g>
     <rect x="0" y="0" width="23" height="23" stroke-width="1.0" stroke="white" stroke-linejoin="round" fill="none" rx="3" ry="3"/>
  </g>
  <mask id="a">
    <rect x="0" y="0" width="23" height="23" stroke="#fff" stroke-linejoin="round" fill="#fff" rx="3" ry="3"/>
  </mask>
</svg>
