<svg width="23" height="23" xmlns="http://www.w3.org/2000/svg">
  <g id="card">
    <rect x="1" y="1" width="21" height="21" stroke="none" stroke-linejoin="round" fill="#82bb37" rx="2" ry="2"/>
     <g transform="translate(-10, 0)">
     <g id="layer1" transform="translate(-135.7787,-70.6255575)"> <path style="color:#000000;display:block;overflow:visible;visibility:visible;fill:#cce6a9;fill-opacity:1;fill-rule:nonzero;stroke:#000000;stroke-width:0.519377;stroke-linecap:butt;stroke-linejoin:miter;stroke-miterlimit:4;stroke-dasharray:none;stroke-dashoffset:0;stroke-opacity:1;marker:none" d="m 145.35598,80.807295 c -3.45726,-1.460726 -8.54281,0.281534 -7.33958,4.211928 1.17255,3.830115 6.23635,2.989564 7.98741,0.658054 -0.7305,4.420618 -2.01347,5.10884 -2.78243,6.06841 h 8.16406 c -0.82718,-1.02617 -2.32922,-1.647792 -3.21006,-6.128984 1.76446,2.327556 7.06887,3.134441 8.22449,-0.640296 1.13679,-3.713311 -3.98749,-5.827954 -7.39501,-4.14697 3.2675,-1.940656 4.44093,-8.31417 -1.74769,-8.31417 -6.2497,0 -5.20696,6.498063 -1.90119,8.292028 z" id="rect3667-8-12-1-6"/> </g>
     </g>
     <g
     id="layer1"
     transform="translate(-85.837656,-65.2)">
    <g
       aria-label="2"
       id="text25255"
       style="font-size:20.9172px;line-height:1.25;fill:#fffafa;stroke:#000000;stroke-width:0.5">
      <path
         d="M 105.59921,84.381599 H 93.118338 q 0.214483,-1.848639 1.297112,-3.472582 1.092842,-1.634156 4.085391,-3.85048 1.828209,-1.358393 2.338889,-2.063123 0.51067,-0.704729 0.51067,-1.337965 0,-0.684303 -0.51067,-1.164336 -0.50046,-0.490247 -1.266474,-0.490247 -0.796652,0 -1.307325,0.50046 -0.500461,0.50046 -0.67409,1.766932 l -4.167098,-0.337045 q 0.245123,-1.756718 0.898786,-2.737212 0.653662,-0.990707 1.838425,-1.511594 1.194977,-0.531101 3.298953,-0.531101 2.195893,0 3.411303,0.50046 1.22562,0.500461 1.92013,1.542235 0.70473,1.031561 0.70473,2.318459 0,1.368606 -0.80686,2.61465 -0.79665,1.246044 -2.91084,2.737212 -1.25626,0.868146 -1.68523,1.215404 -0.41875,0.347258 -0.990704,0.908999 h 6.495774 z"
         id="path26001" />
    </g>
  </g>
     <rect x="0" y="0" width="22" height="22" stroke-width="1px" stroke="black" stroke-linejoin="round" fill="none" rx="2" ry="2"/>
     <rect x="1" y="1" width="21" height="21" stroke-width="1.0" stroke="white" stroke-linejoin="round" fill="none" rx="2" ry="2"/>
  </g>
</svg>
