<svg width="23" height="23" xmlns="http://www.w3.org/2000/svg">
  <g id="card" mask="url(#a)" opacity="1.0">
    <rect x="0" y="0" width="23" height="23" stroke="none" stroke-linejoin="round" fill="#da602d" rx="3" ry="3"/>
     <g transform="translate(-10, 0)">
     <g id="layer1" transform="translate(-40.538304,-210.40214)"> <path id="path41583-2" style="fill:#f3d1c1;stroke:#000000;stroke-width:0.5;stroke-dasharray:none"   d="m 61.023168,229.47548 c -0.234521,0.37583 -8.837408,0.23682 -9.280403,0.23493 -0.427144,-0.002 -8.744961,0.0642 -8.945729,-0.31282 -0.208217,-0.39102 4.213614,-7.77183 4.43675,-8.15453 0.215151,-0.36901 4.316881,-7.60546 4.743777,-7.59082 0.442739,0.0152 4.623795,7.53501 4.843655,7.9196 0.211992,0.37083 4.428079,7.54126 4.20195,7.90364"/></g>
     </g>
      <g
     id="layer1"
     transform="translate(-85.03686,-203.89077)">
    <g
       aria-label="7"
       id="text25275"
       style="font-size:20.9172px;line-height:1.25;fill:#fffafa;stroke:#000000;stroke-width:0.5">
      <path
         d="m 93.286856,208.14077 h 12.143824 v 2.8087 q -1.58309,1.42989 -2.64529,3.09469 -1.2869,2.02226 -2.03248,4.50414 -0.59238,1.93035 -0.796654,4.56542 h -4.146671 q 0.490246,-3.66663 1.542235,-6.14851 1.051988,-2.48187 3.32959,-5.31101 h -7.394554 z"
         id="path26946" />
    </g>
  </g>
     <rect x="0" y="0" width="23" height="23" stroke-width="1.0" stroke="white" stroke-linejoin="round" fill="none" rx="3" ry="3"/>
  </g>
  <mask id="a">
    <rect x="0" y="0" width="23" height="23" stroke="#fff" stroke-linejoin="round" fill="#fff" rx="3" ry="3"/>
  </mask>
</svg>
