<svg width="23" height="23" xmlns="http://www.w3.org/2000/svg">
  <g id="card" mask="url(#a)" opacity="1.0">
    <rect x="0" y="0" width="23" height="23" stroke="none" stroke-linejoin="round" fill="#415152" rx="3" ry="3"/>
     <g transform="translate(-10, 0)">
     <g id="layer1" transform="translate(-75.2,-137)"> <path  id="path2076-5-3-7" d="m 80.570829,145.34561 c -7.181522,6.67739 -0.141595,11.52086 5.536369,8.33299 -1.072113,3.47825 -1.66169,3.7519 -2.312582,4.66792 h 6.130548 c -0.786947,-0.92501 -1.613381,-1.18967 -2.450684,-4.64814 5.797122,3.03077 11.907009,-2.25463 5.474376,-8.35277 -4.206928,-3.34895 -5.840212,-6.4065 -6.189009,-6.84061 -0.334674,0.36173 -2.306464,3.55375 -6.189018,6.84061 z" style="fill:#99acaf;fill-opacity:1;fill-rule:evenodd;stroke:#000000;stroke-width:0.530851;stroke-linecap:butt;stroke-linejoin:miter;stroke-dasharray:none;stroke-opacity:1"/></g>
     </g>
     <g
     id="layer1"
     transform="translate(-99.03686,-16.89077)">
    <g
       aria-label="0"
       id="text25329"
       style="font-size:20.9172px;line-height:1.25;fill:#fffafa;stroke:#000000;stroke-width:0.5"
       transform="translate(13.592016,0.86757546)">
      <path
         d="m 93.240897,27.235276 q 0,-4.269233 1.532022,-5.974884 1.542235,-1.70565 4.687985,-1.70565 1.511596,0 2.481876,0.377898 0.97028,0.367685 1.58309,0.970281 0.61281,0.592381 0.96006,1.256257 0.35748,0.653663 0.57196,1.532022 0.41875,1.67501 0.41875,3.493009 0,4.075177 -1.37882,5.96467 -1.37882,1.889493 -4.749264,1.889493 -1.889493,0 -3.053829,-0.602595 -1.164337,-0.602595 -1.90992,-1.766931 -0.541315,-0.827292 -0.847719,-2.257179 -0.296191,-1.4401 -0.296191,-3.176391 z m 4.126245,0.01021 q 0,2.859773 0.50046,3.911761 0.510674,1.041775 1.470741,1.041775 0.633235,0 1.092837,-0.43918 0.46982,-0.449393 0.68431,-1.40946 0.22469,-0.960066 0.22469,-2.992548 0,-2.982335 -0.51067,-4.003683 -0.50046,-1.031561 -1.511594,-1.031561 -1.031561,0 -1.491168,1.051988 -0.459606,1.041775 -0.459606,3.870908 z"
         id="path25647" />
    </g>
  </g>

     <rect x="0" y="0" width="23" height="23" stroke-width="1.0" stroke="white" stroke-linejoin="round" fill="none" rx="3" ry="3"/>
  </g>
  <mask id="a">
    <rect x="0" y="0" width="23" height="23" stroke="#fff" stroke-linejoin="round" fill="#fff" rx="3" ry="3"/>
  </mask>
</svg>
