<svg width="23" height="23" xmlns="http://www.w3.org/2000/svg">
  <g id="card" mask="url(#a)">
    <rect x="1" y="1" width="21" height="21" stroke="none" stroke-linejoin="round" fill="#bf101e" rx="2" ry="2"/>
     <g transform="translate(-10, 0)">
     <g id="layer1" transform="translate(-91,-76.881918)"> <path  id="path30-0-8-4" d="m 102.41344,96.744843 c -1.06463,-3.7069 -3.948145,-6.47787 -6.311364,-9.42505 -1.238486,-1.4897 -2.410846,-3.41854 -1.888292,-5.40914 0.6033,-2.09777 3.149081,-3.26892 5.223227,-2.57744 1.385429,0.42043 2.508029,1.51375 3.043159,2.82073 0.47765,-0.71902 0.85273,-1.52899 1.592,-2.03889 1.77627,-1.45814 4.76316,-1.23696 6.17035,0.61539 1.03656,1.30205 0.81477,3.1195 0.11864,4.52023 -1.15153,2.42467 -3.25301,4.21788 -4.84391,6.35023 -1.20388,1.53933 -2.28597,3.21464 -2.8461,5.08885 -0.0384,0.0894 -0.19074,0.15827 -0.25775,0.055 z" style="fill:#f3737d;fill-opacity:1;stroke:#000000;stroke-width:0.5;stroke-dasharray:none;stroke-opacity:1" /></g>
     </g>
     <g
     id="layer1"
     transform="translate(-85.837656,-65.2)">
    <g
       aria-label="2"
       id="text25255"
       style="font-size:20.9172px;line-height:1.25;fill:#fffafa;stroke:#000000;stroke-width:0.5">
      <path
         d="M 105.59921,84.381599 H 93.118338 q 0.214483,-1.848639 1.297112,-3.472582 1.092842,-1.634156 4.085391,-3.85048 1.828209,-1.358393 2.338889,-2.063123 0.51067,-0.704729 0.51067,-1.337965 0,-0.684303 -0.51067,-1.164336 -0.50046,-0.490247 -1.266474,-0.490247 -0.796652,0 -1.307325,0.50046 -0.500461,0.50046 -0.67409,1.766932 l -4.167098,-0.337045 q 0.245123,-1.756718 0.898786,-2.737212 0.653662,-0.990707 1.838425,-1.511594 1.194977,-0.531101 3.298953,-0.531101 2.195893,0 3.411303,0.50046 1.22562,0.500461 1.92013,1.542235 0.70473,1.031561 0.70473,2.318459 0,1.368606 -0.80686,2.61465 -0.79665,1.246044 -2.91084,2.737212 -1.25626,0.868146 -1.68523,1.215404 -0.41875,0.347258 -0.990704,0.908999 h 6.495774 z"
         id="path26001" />
    </g>
  </g>
     <rect x="1" y="1" width="21" height="21" stroke-width="1.0" stroke="white" stroke-linejoin="round" fill="none" rx="2" ry="2"/>
  </g>
  <mask id="a">
    <rect x="1" y="1" width="21" height="21" stroke="#fff" stroke-linejoin="round" fill="#fff" rx="2" ry="2"/>
  </mask>
</svg>
