<svg width="23" height="23" xmlns="http://www.w3.org/2000/svg">
  <g id="card" mask="url(#a)" opacity="1.0">
    <rect x="0" y="0" width="23" height="23" stroke="none" stroke-linejoin="round" fill="#415152" rx="3" ry="3"/>
     <g transform="translate(-10, 0)">
     <g id="layer1" transform="translate(-75.2,-137)"> <path  id="path2076-5-3-7" d="m 80.570829,145.34561 c -7.181522,6.67739 -0.141595,11.52086 5.536369,8.33299 -1.072113,3.47825 -1.66169,3.7519 -2.312582,4.66792 h 6.130548 c -0.786947,-0.92501 -1.613381,-1.18967 -2.450684,-4.64814 5.797122,3.03077 11.907009,-2.25463 5.474376,-8.35277 -4.206928,-3.34895 -5.840212,-6.4065 -6.189009,-6.84061 -0.334674,0.36173 -2.306464,3.55375 -6.189018,6.84061 z" style="fill:#99acaf;fill-opacity:1;fill-rule:evenodd;stroke:#000000;stroke-width:0.530851;stroke-linecap:butt;stroke-linejoin:miter;stroke-dasharray:none;stroke-opacity:1"/></g>
     </g>
     <g
     id="layer1"
     transform="translate(-85.53686,-176.3)">
    <g
       aria-label="6"
       id="text25271"
       style="font-size:20.9172px;line-height:1.25;fill:#fffafa;stroke:#000000;stroke-width:0.5">
      <path
         d="m 105.2111,183.73926 -4.13646,0.51067 q -0.16342,-0.86814 -0.55153,-1.22562 -0.3779,-0.35747 -0.939637,-0.35747 -1.011134,0 -1.572875,1.02135 -0.408539,0.73537 -0.602596,3.14575 0.745584,-0.7558 1.532022,-1.11327 0.786438,-0.36768 1.817996,-0.36768 2.00184,0 3.38066,1.42988 1.38904,1.42989 1.38904,3.62579 0,1.48095 -0.70473,2.70657 -0.69452,1.22562 -1.94056,1.85885 -1.23583,0.62302 -3.104901,0.62302 -2.246965,0 -3.605357,-0.76601 -1.358393,-0.76601 -2.175471,-2.44102 -0.806864,-1.68522 -0.806864,-4.45307 0,-4.05475 1.70565,-5.93403 1.705651,-1.8895 4.72884,-1.8895 1.787363,0 2.818923,0.41876 1.04177,0.40853 1.72607,1.20519 0.68431,0.79665 1.04178,2.00184 z m -7.660109,6.6694 q 0,1.2154 0.612809,1.90992 0.612808,0.6843 1.501381,0.6843 0.817079,0 1.368609,-0.62302 0.55152,-0.62302 0.55152,-1.85885 0,-1.26648 -0.57195,-1.93035 -0.57195,-0.66388 -1.419674,-0.66388 -0.868145,0 -1.460527,0.64345 -0.582168,0.64345 -0.582168,1.83843 z"
         id="path26757" />
    </g>
  </g>
     <rect x="0" y="0" width="23" height="23" stroke-width="1.0" stroke="white" stroke-linejoin="round" fill="none" rx="3" ry="3"/>
  </g>
  <mask id="a">
    <rect x="0" y="0" width="23" height="23" stroke="#fff" stroke-linejoin="round" fill="#fff" rx="3" ry="3"/>
  </mask>
</svg>
